<?xml version="1.0" encoding="utf-8"?>
<!-- Generator: Adobe Illustrator 27.5.0, SVG Export Plug-In . SVG Version: 6.00 Build 0)  -->
<svg version="1.1" id="logo" xmlns="http://www.w3.org/2000/svg" xmlns:xlink="http://www.w3.org/1999/xlink" x="0px" y="0px"
	 viewBox="0 0 288 288" style="enable-background:new 0 0 288 288;" xml:space="preserve">
<style type="text/css">
	.st0{fill:#BE1E2D;stroke:#BE1E2D;stroke-width:2;stroke-miterlimit:10;}
	.st1{fill:#006838;stroke:#006838;stroke-width:2;stroke-miterlimit:10;}
	.st2{stroke:#000000;stroke-width:0.25;stroke-miterlimit:10;}
	.st3{display:none;fill:none;stroke:#000000;stroke-width:3;stroke-miterlimit:10;}
	.st4{stroke:#000000;stroke-width:0.25;stroke-linejoin:round;stroke-miterlimit:10;}
	.st5{stroke:#000000;stroke-width:0.5;stroke-linejoin:round;stroke-miterlimit:10;}
	.st6{stroke:#000000;stroke-miterlimit:10;}
	.st7{font-family:'Georgia';}
	.st8{font-size:12px;}
	.st9{letter-spacing:3;}
</style>
<path d="M226.54,106.93c-27.98-86.6-142.73-82.79-167.09-0.12h19.47l-1.12-1.12c22.06-62.17,109.91-59.43,130.45,0l-1.25,1.25
	H226.54z M62.2,104.75c31.3-83.54,135.78-73.86,161.51,0h-6.46c-25.34-70.83-122.58-71.22-149.09,0.2L62.2,104.75z M74.52,104.95
	h-2.64c25.92-67.99,118.08-65.64,141.65,0h-2.64C189.96,44.78,100.84,36.96,74.52,104.95z"/>
<g id="Layer_3">
	<path class="st0" d="M226.89,111.65v1.46h-21.82v-1.43C205.07,111.68,226.89,111.55,226.89,111.65z"/>
	<path class="st1" d="M58.84,111.7v1.46h21.82v-1.43C80.65,111.73,58.84,111.6,58.84,111.7z"/>
</g>
<path class="st1" d="M59.75,183.63v1.46h25.34v-1.43C85.09,183.67,59.75,183.54,59.75,183.63z"/>
<path class="st0" d="M225.84,183.58v1.46H201.3v-1.43C201.3,183.62,225.84,183.49,225.84,183.58z"/>
<path class="st2" d="M76.87,190.54c34.24,47.74,99.59,45.49,133.14,0H76.87z M197.78,192.7c-30.03,32.87-78.85,32.28-109.08,0
	H197.78z M82.35,192.4h2.84c31.3,35.51,83.64,37.76,116.02,0h3.03C172.54,232.61,114.68,232.95,82.35,192.4z"/>
<path class="st3" d="M67.48,190.15c35.32,57.62,116.32,57.23,151.53,0"/>
<path class="st2" d="M69.14,190.15c32.09,51.36,108.88,58.5,148.21,0h3.23c-39.91,61.63-118.86,57.03-154.96,0H69.14z"/>
<path class="st4" d="M132.83,120.04h-6.65l8.35-12.65c-3.75-13.26,4.91-21.18,13.57-35.61c1.03,0.49-5.67,15.65-5.28,16.48
	c0.98,1.08,10.74-14.06,11.47-13.87c0.88,0.49-7.21,16.26-6.33,16.7c1.22,0.59,11.01-14.18,11.69-13.84
	c0.93,0.44-7.51,16.61-6.82,17.19c1.17,0.68,13.08-13.77,13.72-13.38c-10.42,20.05-14.38,29.74-27.2,29.93L132.83,120.04z"/>
<path d="M105.63,164.13h-4.79l16.73-40.21h-22.7v14.67c0,0,2.35,0.65,2.35,0l3.72-10.27h7.34l-14.18,35.51h-3.72l-10.66-40.01h-5.09
	c-9.05,34.14-8.95,40.65-13.01,41.67c-0.68,0.05-0.88,2.64-0.29,2.64h10.86c0.93-0.1,0.98-3.33,0-3.23
	c-3.6,0.19-1.89-5.51-0.39-10.96h9.59c1.6,4.87,4.16,11.15,0.49,10.96c-0.64-0.05-0.93,3.13,0,3.23h32.48v-14.77h-3.38
	C109.74,158.7,109.69,164.13,105.63,164.13z M72.61,149.9l4.16-17.12l4.06,17.12H72.61z"/>
<path d="M131.85,164.2h-4.79l16.73-40.21h-22.7v14.67c0,0,2.35,0.65,2.35,0l3.72-10.27h7.34l-16.14,39.82h22.21v-14.77h-3.38
	C135.96,158.77,135.91,164.2,131.85,164.2z"/>
<path d="M146.85,124.02v2.67c0,0,2.74,1.63,2.67,3.13v30c0.65,12.33,20.87,11.41,20.8,0v-30.07c-0.07-1.5,1.43-2.29,3-3v-2.74H162.5
	v2.74c1.46,0.62,2.8,1.7,2.84,2.84v29.71c-0.1,5.87-9.42,7.17-9.82,0v-29.48c0.13-1.3,1.57-2.23,3.23-3.23v-2.51L146.85,124.02z"/>
<path d="M200.98,165.17c-3.65,0.2-5.15-4.83-8.8-17.28c11.28-10.37,2.87-24.13-4.04-23.87h-11.22l-0.07,2.54
	c0.87,0.34,1.77,0.96,2.67,1.76v35.02c-0.87,1.25-2.19,1.68-3.65,1.83c-0.65,0.13-0.72,3.2,0,3h12.78c0.46,0.07,0.85-2.61,0-2.74
	c-1.02-0.12-2-0.87-2.93-2.09v-13.89h0.72c3.91,12.65,4.63,20.09,14.54,19.04C201.76,168.5,201.76,165.17,200.98,165.17z
	 M185.65,145.09v-17.02C193.87,129.7,193.09,143.98,185.65,145.09z"/>
<path d="M213.27,123.37c-17.22,0-15.85,45.68,0,45.68C230.49,169.05,229.8,123.37,213.27,123.37z M213.47,164.85
	c-6.75,0-7.24-37.17,0-37.17C219.92,127.67,221.68,164.85,213.47,164.85z"/>
<path class="st5" d="M99.57,178.93l0.07,2.02h-4.04c-1.76-0.78-1.57-1.5,0-2.09L99.57,178.93z"/>
<path class="st5" d="M187.24,179.03l-0.07,2.02h4.04c1.76-0.78,1.57-1.5,0-2.09L187.24,179.03z"/>
<text transform="matrix(1 0 0 1 112.132 183.2658)" class="st6 st7 st8 st9">Italiano</text>
</svg>
