<?xml version="1.0" encoding="utf-8"?>
<!-- Generator: Adobe Illustrator 27.6.1, SVG Export Plug-In . SVG Version: 6.00 Build 0)  -->
<svg version="1.1" id="Layer_1" xmlns="http://www.w3.org/2000/svg" xmlns:xlink="http://www.w3.org/1999/xlink" x="0px" y="0px"
	 viewBox="0 0 792 792" style="enable-background:new 0 0 792 792;" xml:space="preserve">
<style type="text/css">
	.st0{fill:#FFFFFF;}
</style>
<g>
	<path d="M792.5,396.5C792.5,177.52,614.98,0,396,0S-0.5,177.52-0.5,396.5c0,197.9,144.99,361.94,334.55,391.68V511.11H233.37V396.5
		h100.67v-87.35c0-99.37,59.2-154.26,149.76-154.26c43.38,0,88.76,7.74,88.76,7.74v97.58h-50c-49.25,0-64.61,30.56-64.61,61.92
		v74.38h109.97l-17.58,114.61h-92.39v277.07C647.51,758.44,792.5,594.4,792.5,396.5z"/>
	<path class="st0" d="M550.34,511.11l17.58-114.61H457.95v-74.38c0-31.36,15.36-61.92,64.61-61.92h50v-97.58
		c0,0-45.37-7.74-88.76-7.74c-90.57,0-149.76,54.89-149.76,154.26v87.35H233.37v114.61h100.67v277.07
		c20.19,3.17,40.88,4.82,61.95,4.82s41.77-1.65,61.95-4.82V511.11H550.34z"/>
</g>
</svg>
