<?xml version="1.0" encoding="utf-8"?>
<!-- Generator: Adobe Illustrator 27.6.1, SVG Export Plug-In . SVG Version: 6.00 Build 0)  -->
<svg version="1.1" id="Layer_1" xmlns="http://www.w3.org/2000/svg" xmlns:xlink="http://www.w3.org/1999/xlink" x="0px" y="0px"
	 viewBox="0 0 288 288" style="enable-background:new 0 0 288 288;" xml:space="preserve">
<style type="text/css">
	.st0{fill:#FFFFFF;}
</style>
<g>
	<circle cx="144" cy="144" r="144"/>
	<g>
		<g>
			<path class="st0" d="M144,69.67c24.21,0,27.08,0.09,36.64,0.53c8.84,0.4,13.64,1.88,16.84,3.12c4.23,1.64,7.25,3.61,10.43,6.78
				c3.17,3.17,5.14,6.19,6.78,10.42c1.24,3.19,2.72,8,3.12,16.84c0.44,9.56,0.53,12.43,0.53,36.64s-0.09,27.08-0.53,36.64
				c-0.4,8.84-1.88,13.64-3.12,16.84c-1.64,4.23-3.61,7.25-6.78,10.42c-3.17,3.17-6.19,5.14-10.43,6.78
				c-3.19,1.24-8,2.72-16.84,3.12c-9.56,0.44-12.43,0.53-36.64,0.53c-24.21,0-27.08-0.09-36.64-0.53
				c-8.84-0.4-13.64-1.88-16.84-3.12c-4.23-1.64-7.25-3.61-10.42-6.78c-3.17-3.17-5.14-6.19-6.78-10.42
				c-1.24-3.19-2.72-8-3.12-16.84c-0.44-9.56-0.53-12.43-0.53-36.64s0.09-27.08,0.53-36.64c0.4-8.84,1.88-13.64,3.12-16.84
				c1.64-4.23,3.61-7.25,6.78-10.42c3.17-3.17,6.19-5.14,10.42-6.78c3.19-1.24,8-2.72,16.84-3.12
				C116.92,69.76,119.79,69.67,144,69.67 M144,53.33c-24.62,0-27.71,0.1-37.38,0.55c-9.65,0.44-16.24,1.97-22.01,4.21
				c-5.96,2.32-11.02,5.42-16.06,10.46c-5.04,5.04-8.14,10.1-10.46,16.06c-2.24,5.77-3.77,12.36-4.21,22.01
				c-0.44,9.67-0.55,12.76-0.55,37.38c0,24.62,0.1,27.71,0.55,37.38c0.44,9.65,1.97,16.24,4.21,22.01
				c2.32,5.96,5.42,11.02,10.46,16.06c5.04,5.04,10.1,8.14,16.06,10.46c5.77,2.24,12.36,3.77,22.01,4.21
				c9.67,0.44,12.76,0.55,37.38,0.55c24.62,0,27.71-0.1,37.38-0.55c9.65-0.44,16.24-1.97,22.01-4.21
				c5.96-2.32,11.02-5.42,16.06-10.46c5.04-5.04,8.14-10.1,10.46-16.06c2.24-5.77,3.77-12.36,4.21-22.01
				c0.44-9.67,0.55-12.76,0.55-37.38s-0.1-27.71-0.55-37.38c-0.44-9.65-1.97-16.24-4.21-22.01c-2.32-5.96-5.42-11.02-10.46-16.06
				c-5.04-5.04-10.1-8.14-16.06-10.46c-5.77-2.24-12.36-3.77-22.01-4.21C171.71,53.44,168.62,53.33,144,53.33L144,53.33z"/>
			<path class="st0" d="M144,97.44c-25.71,0-46.56,20.85-46.56,46.56s20.85,46.56,46.56,46.56c25.71,0,46.56-20.85,46.56-46.56
				S169.71,97.44,144,97.44z M144,174.22c-16.69,0-30.22-13.53-30.22-30.22s13.53-30.22,30.22-30.22s30.22,13.53,30.22,30.22
				S160.69,174.22,144,174.22z"/>
			<circle class="st0" cx="192.4" cy="95.6" r="10.88"/>
		</g>
	</g>
</g>
</svg>
