<?xml version="1.0" encoding="utf-8"?>
<!-- Generator: Adobe Illustrator 27.6.1, SVG Export Plug-In . SVG Version: 6.00 Build 0)  -->
<svg version="1.1" id="Layer_1" xmlns="http://www.w3.org/2000/svg" xmlns:xlink="http://www.w3.org/1999/xlink" x="0px" y="0px"
	 viewBox="0 0 288 288" style="enable-background:new 0 0 288 288;" xml:space="preserve">
<g>
	<path d="M39.98,52.55l84.94,96.37c4.83,5.48,11.79,8.62,19.09,8.62c7.3,0,14.26-3.14,19.09-8.62l83.46-94.7
		c0.69-0.78,1.5-1.38,2.37-1.87c-3.54-1.55-7.44-2.42-11.55-2.42H50.63c-3.93,0-7.67,0.79-11.08,2.21
		C39.68,52.28,39.84,52.4,39.98,52.55z"/>
	<path d="M261.79,63.45c-0.38,0.98-0.9,1.92-1.63,2.75l-83.47,94.7c-8.27,9.38-20.18,14.76-32.68,14.76
		c-12.5,0-24.42-5.38-32.68-14.76L26.38,64.53c-0.17-0.19-0.29-0.41-0.44-0.62c-2.62,4.35-4.16,9.42-4.16,14.86v130.45
		c0,15.93,12.92,28.85,28.85,28.85h186.75c15.93,0,28.85-12.92,28.85-28.85V78.78C266.22,73.14,264.58,67.9,261.79,63.45z"/>
</g>
</svg>
