<?xml version="1.0" encoding="utf-8"?>
<!-- Generator: Adobe Illustrator 27.6.1, SVG Export Plug-In . SVG Version: 6.00 Build 0)  -->
<svg version="1.1" id="Layer_1" xmlns="http://www.w3.org/2000/svg" xmlns:xlink="http://www.w3.org/1999/xlink" x="0px" y="0px"
	 viewBox="0 0 288 288" style="enable-background:new 0 0 288 288;" xml:space="preserve">
<g>
	<path d="M144,77.9c-16.94,0-30.73,13.79-30.73,30.73c0,16.94,13.79,30.73,30.73,30.73c16.95,0,30.73-13.79,30.73-30.73
		C174.73,91.68,160.94,77.9,144,77.9z"/>
	<path d="M144,10.45c-56.96,0-103.13,46.17-103.13,103.13c0,48.56,74.98,136.42,97.07,161.26c3.23,3.63,8.88,3.63,12.11,0
		c22.09-24.83,97.07-112.69,97.07-161.26C247.13,56.62,200.96,10.45,144,10.45z M144,159.62c-28.11,0-50.99-22.88-50.99-50.99
		c0-28.12,22.87-50.99,50.99-50.99c28.12,0,50.99,22.87,50.99,50.99C194.99,136.74,172.11,159.62,144,159.62z"/>
</g>
</svg>
