<?xml version="1.0" encoding="utf-8"?>
<!-- Generator: Adobe Illustrator 27.6.1, SVG Export Plug-In . SVG Version: 6.00 Build 0)  -->
<svg version="1.1" id="Layer_1" xmlns="http://www.w3.org/2000/svg" xmlns:xlink="http://www.w3.org/1999/xlink" x="0px" y="0px"
	 viewBox="0 0 288 288" style="enable-background:new 0 0 288 288;" xml:space="preserve">
<g>
	<path d="M231.67,202.87V46.27c0-17.46-14.16-31.62-31.62-31.62H87.95c-17.46,0-31.62,14.16-31.62,31.62v156.59H231.67z M144,34.36
		c5.23,0,9.48,4.24,9.48,9.48c0,5.24-4.25,9.48-9.48,9.48c-5.24,0-9.48-4.24-9.48-9.48C134.52,38.6,138.76,34.36,144,34.36z"/>
	<path d="M56.33,221.83v19.9c0,17.46,14.16,31.62,31.62,31.62h112.1c17.46,0,31.62-14.16,31.62-31.62v-19.9H56.33z M144,255.76
		c-5.24,0-9.48-4.25-9.48-9.48c0-5.24,4.24-9.48,9.48-9.48c5.23,0,9.48,4.24,9.48,9.48C153.48,251.52,149.23,255.76,144,255.76z"/>
</g>
</svg>
