<?xml version="1.0" encoding="utf-8"?>
<!-- Generator: Adobe Illustrator 27.6.1, SVG Export Plug-In . SVG Version: 6.00 Build 0)  -->
<svg version="1.1" id="Layer_1" xmlns="http://www.w3.org/2000/svg" xmlns:xlink="http://www.w3.org/1999/xlink" x="0px" y="0px"
	 viewBox="0 0 400 400" style="enable-background:new 0 0 400 400;" xml:space="preserve">
<path d="M374.38,75.32c-0.48-3.21-1.26-6.36-2.35-9.41c-1.08-3.03-2.47-5.88-4.04-8.53c-1.59-2.68-3.41-5.17-5.39-7.47l-0.09-0.1
	c-1.62-1.74-3.39-3.3-5.3-4.72c-1.88-1.47-3.9-2.82-6.03-4.09l-0.18-0.1c-2.41-1.26-5.04-2.43-7.87-3.52
	c-2.96-1.09-6.22-2.09-9.92-2.96l-0.27-0.05c-2.14-0.34-4.4-0.58-6.73-0.71l-0.14-0.01c-0.18,0-0.34,0-0.49,0
	c-2.13,0-4.34,0.07-6.62,0.23c-2.46,0.17-4.92,0.47-7.3,0.83c-2.39,0.38-4.65,0.8-6.75,1.21l-0.08,0.02c-3.2,0.71-5.74,1.29-7.6,1.7
	h0c-1.67,0.34-2.87,0.52-3.6,0.55c-1.77-0.18-3.28-0.43-4.62-0.8c-1.5-0.65-3.26-1.48-5.32-2.35l-0.13-0.05
	c-2.58-0.97-5.54-1.79-8.88-2.45l-0.1-0.02c-3.53-0.6-7.18-1.09-10.9-1.49c-3.16-0.31-6.31-0.56-9.46-0.76
	c-3.98-0.22-7.93-0.34-11.86-0.36c-0.38,0-0.76,0-1.13,0c-3.55,0-7.06,0.08-10.52,0.23c-3.83,0.16-7.59,0.39-11.29,0.62
	c-3.83,0.3-7.59,0.71-11.34,1.23c-5.62,0.78-11.17,1.78-16.69,2.69c-5.44,0.84-10.97,1.46-16.52,1.95
	c-2.78,0.12-5.55,0.21-8.31,0.29c-1.14,0.03-2.29,0.04-3.43,0.04c-1.57,0-3.14-0.03-4.7-0.08c-2.76-0.1-5.54-0.2-8.31-0.23
	c-0.42,0-0.86-0.01-1.28-0.01c-2.38,0-4.75,0.08-7.12,0.25l-0.09,0.01c-2.83,0.28-5.63,0.75-8.41,1.39l-0.11,0.03
	c-2.85,0.75-5.61,1.76-8.3,2.99l-0.16,0.07c-2.54,1.3-5.03,2.63-7.5,3.87c-2.33,1.17-4.71,2.18-7.14,3.02
	c-2.38,0.58-4.98,0.96-7.88,1.11c-3.15,0.17-6.55,0.32-10,0.68l-0.21,0.03c-3.56,0.58-6.95,1.55-10.11,2.9
	c-3.17,1.35-6.04,3.08-8.64,5.1l-0.28,0.24c-2.39,2.29-4.53,4.84-6.32,7.64c-1.79,2.78-3.21,5.76-4.29,8.91l-0.06,0.2
	c-0.88,3.13-1.45,6.41-1.67,9.82l-0.01,0.13c-0.02,0.48-0.02,0.95-0.02,1.42c0,2.82,0.24,5.7,0.72,8.62l0.03,0.16
	c1.2,5.68,3.16,10.49,6.09,14.64l0.13,0.17c3.2,4.01,7.4,7.29,12.71,9.91l0.15,0.07c1.72,0.75,3.51,1.39,5.37,1.89
	c-0.29,0.36-0.58,0.72-0.84,1.09c-3.6,4.96-5.39,11.07-5.41,16.85c0,0.8,0.03,1.6,0.11,2.4c0.59,5.15,2.51,8.65,2.39,11.33
	c0,0.74-0.1,1.45-0.35,2.25c-1,3.41-5.21,7.6-8.78,11.35c-8.6,9.27-15.99,20.12-18.14,33.27c-0.44,2.75-0.57,5.49-0.64,8.17
	c-0.08,0.4-0.08,0.8-0.03,1.19c-0.03,1.69-0.06,3.34-0.14,4.95c-0.2,4.51-0.81,8.48-2.64,11.7c-2.12,3.78-5.58,7.9-8.83,12.38
	c-3.22,4.49-6.32,9.43-7.23,15.31c-0.54,3.57-0.85,7.64-0.85,11.84c0,1.6,0.05,3.23,0.15,4.85c0.18,2.93,0.52,5.85,1.09,8.64
	c0.34,1.66,0.76,3.26,1.26,4.8c0.06,0.47,0.21,0.9,0.43,1.29c0.22,0.6,0.45,1.18,0.7,1.75c1.72,3.9,3.53,7.49,4.84,10.71
	c0.09,0.21,0.16,0.42,0.25,0.62c0.07,0.29,0.18,0.57,0.32,0.84c0.92,2.5,1.46,4.75,1.45,6.87c0,0.08,0,0.19,0,0.32
	c-0.04,1.53-0.4,2.96-1.36,4.61c-1.03,1.36-2.73,2.87-4.83,4.48l-0.14,0.12c-2.29,1.95-4.79,4.16-7.05,6.79l-0.11,0.14
	c-2.21,2.83-4.02,6.04-5.2,9.59l-0.03,0.11c-0.7,2.35-1.07,4.75-1.07,7.17c0,1.23,0.09,2.47,0.29,3.71l0.03,0.14
	c0.92,4.7,2.69,8.27,5.19,10.76c2.44,2.62,5.6,3.96,8.66,4.53c1.44,0.27,2.91,0.38,4.37,0.38c1.72,0,3.43-0.16,5.09-0.42
	c0.34-0.06,0.66-0.14,0.99-0.21c0.25,0.62,0.54,1.21,0.86,1.76c0.78,1.31,1.76,2.5,2.83,3.64c1.15,1.21,2.45,2.37,3.79,3.35
	c1.36,0.98,2.69,1.82,4.35,2.3c1.18,0.32,2.33,0.45,3.44,0.45c2.41,0,4.62-0.6,6.63-1.38l0.07-0.03c2.87-1.19,5.41-2.75,7.44-3.86
	c3.89-2.14,7.38-4.63,10.71-7.05c2.38-1.73,4.71-3.44,7.03-5.11c3.1,4.33,7.86,7.04,13.03,7.07c0.04,0,0.07,0,0.11,0
	c4.64,0,9.36-2.48,12.52-7.18c1.88-2.74,2.74-5.82,2.89-8.8c0.02-0.38,0.03-0.76,0.03-1.12c0-2.61-0.47-5.15-1.14-7.58
	c-0.09-0.33-0.19-0.65-0.29-0.98c2.91-2.2,5.79-4.44,8.63-6.71c3.38-2.7,6.73-5.41,10.08-8.12c2.23-1.8,4.47-3.61,6.69-5.41
	c2.13-1.72,4.15-3.35,6.03-4.87c1.48-1.2,2.89-2.35,4.29-3.47c2.08,1.42,4.23,2.83,6.47,4.12l0.11,0.06
	c3.65,1.93,7.58,3.38,11.88,3.97l0.14,0.02c0.98,0.1,1.97,0.15,2.98,0.15c3.41,0,7.01-0.58,10.79-1.84
	c5.62-1.84,9.56-5.56,11.56-10.05c1.51-3.33,2.07-6.98,2.08-10.69c0-1.3-0.07-2.6-0.19-3.9c-0.27-2.58-0.74-5.12-1.32-7.58
	c-0.58-2.46-1.26-4.84-1.98-7.09c-0.15-0.47-0.3-0.94-0.45-1.4c0.16-0.07,0.31-0.15,0.46-0.25c2.79-1.79,5.68-3.59,8.57-5.62
	c15.49-10.89,29.52-24.07,42.87-36.8c12.73-12.15,25.35-24.72,37.87-36.81c9.27-8.96,19.61-17.37,28.62-27.61
	c5.62-6.45,13.2-11.37,19.64-18.93c3.23-3.82,4.54-8.03,5.62-11.69c0.95-3.3,1.76-6.17,3.16-8.53c4.63-1.27,9.07-3.33,13.01-6.53
	c3.59-2.9,6.33-6.19,8.36-9.75c0.62-0.84,1.17-1.67,1.63-2.52l0.09-0.18c0.54-1.16,0.93-2.38,1.09-3.69c0.8-2.45,1.37-5,1.73-7.65
	c0.39-3.08,0.54-6.27,0.55-9.56h0c0.02-0.56,0.03-1.12,0.03-1.68C375,80.69,374.77,77.98,374.38,75.32z M83.35,113.37
	c-4.45-2.21-7.63-4.74-10.09-7.79c-2.24-3.2-3.79-6.91-4.84-11.78c-0.41-2.51-0.61-4.97-0.61-7.35c0-0.39,0-0.77,0.02-1.14
	c0.19-2.86,0.66-5.57,1.38-8.15c0.91-2.61,2.06-5.01,3.5-7.25c1.42-2.22,3.14-4.29,5.08-6.17c2.09-1.61,4.36-2.96,6.87-4.03
	c2.55-1.09,5.35-1.9,8.34-2.39c1.28-0.13,2.57-0.23,3.87-0.31c-0.41,0.94-0.78,1.9-1.08,2.87c-0.75,2.51-1.26,5.05-1.59,7.32
	c-0.41,2.29-0.64,4.74-0.68,7.25c0,0.18,0,0.37,0,0.54c0,2.4,0.21,4.86,0.63,7.29c0.92,5.22,2.76,10.32,5.79,14.39
	c0.72,0.96,1.82,1.46,2.93,1.46c0.76,0,1.53-0.24,2.19-0.73c1.61-1.21,1.94-3.5,0.74-5.11c-2.1-2.79-3.7-6.93-4.44-11.27
	c-0.35-2.01-0.53-4.07-0.53-6.04c0-0.16,0-0.3,0-0.42c0.03-2.16,0.23-4.26,0.57-6.16l0.02-0.13c0.28-1.97,0.74-4.23,1.35-6.27
	c0.27-0.88,0.61-1.77,1-2.58c0.35-0.69,0.74-1.28,1.1-1.74c0.31-0.31,0.59-0.51,0.87-0.67c0.46-0.21,0.98-0.4,1.57-0.55
	c0.34-0.09,0.65-0.23,0.95-0.41c1.25-0.2,2.47-0.44,3.65-0.73l0.3-0.09c2.81-0.96,5.55-2.11,8.21-3.45c2.53-1.27,5-2.59,7.44-3.84
	c2.33-1.06,4.67-1.92,7.04-2.54c2.17-0.5,4.35-0.87,6.52-1.12c-0.29,0.67-0.56,1.35-0.81,2.07c-0.75,2.22-1.28,4.62-1.6,7.06
	l-0.02,0.19c-0.08,1.09-0.12,2.17-0.12,3.23c0,1.29,0.06,2.54,0.16,3.74l0.01,0.06c0.21,2.06,0.49,3.97,0.81,5.58
	c0.3,1.56,0.57,2.81,1.04,4.01c0.58,1.41,1.94,2.27,3.38,2.27c0.46,0,0.93-0.09,1.38-0.27c1.87-0.76,2.76-2.9,2-4.76
	c-0.09-0.19-0.39-1.26-0.63-2.6c-0.27-1.38-0.52-3.08-0.71-4.91c-0.08-0.99-0.13-2.04-0.13-3.11c0-0.85,0.03-1.71,0.09-2.57
	c0.26-1.97,0.7-3.91,1.25-5.53c0.57-1.66,1.24-2.98,1.72-3.61c0.12-0.17,0.23-0.28,0.3-0.35c0.7-0.08,1.34-0.36,1.86-0.78
	c2.23,0.04,4.47,0.11,6.75,0.2c1.65,0.06,3.3,0.09,4.96,0.09c1.2,0,2.41-0.02,3.62-0.05c2.82-0.08,5.65-0.18,8.5-0.3l0.16-0.01
	c5.7-0.5,11.41-1.15,17.12-2.02c5.64-0.93,11.12-1.91,16.55-2.67c1.31-0.18,2.62-0.33,3.93-0.49c-0.28,0.36-0.57,0.71-0.83,1.08
	l-0.13,0.2c-0.94,1.51-1.74,3.11-2.42,4.77c-0.68,1.66-1.24,3.38-1.7,5.13l-0.05,0.2c-0.36,1.76-0.62,3.52-0.79,5.27
	c-0.13,1.43-0.2,2.86-0.2,4.26c0,0.32,0,0.62,0.01,0.92l0.01,0.19c0.25,3.35,0.97,6.5,1.94,9.36c0.51,1.52,1.94,2.48,3.46,2.49
	c0.39,0,0.78-0.06,1.17-0.19c1.91-0.65,2.94-2.72,2.29-4.63c-0.79-2.33-1.36-4.87-1.57-7.49c0-0.22-0.01-0.44-0.01-0.65
	c0-1.17,0.05-2.37,0.17-3.57c0.13-1.45,0.35-2.92,0.65-4.38c0.39-1.45,0.84-2.84,1.38-4.13c0.53-1.28,1.13-2.49,1.81-3.6
	c1.6-2.21,3.38-4.05,5.48-5.53c0.27-0.19,0.49-0.41,0.68-0.65c2.2-0.13,4.42-0.25,6.66-0.34c3.37-0.14,6.78-0.23,10.21-0.23
	c0.37,0,0.73,0,1.08,0c0.26,0,0.52,0.01,0.77,0.01c-1.01,0.88-2.11,2.04-2.96,3.65c-1.53,2.86-1.67,5.69-1.67,7.97
	c0,0.77,0.02,1.51,0.02,2.22c0,2.02,1.63,3.65,3.65,3.65c2.02,0,3.65-1.64,3.65-3.65h0c0-0.81-0.01-1.55-0.01-2.22
	c0.01-2.05,0.13-3.25,0.81-4.54c0.45-0.84,1.05-1.4,2.16-2.26c1.07-0.85,2.67-1.93,4.03-3.86c0.15-0.21,0.27-0.43,0.36-0.65
	c0.22,0.01,0.45,0.02,0.67,0.03c3.04,0.19,6.1,0.44,9.14,0.73c3.53,0.38,7,0.84,10.35,1.41c2.97,0.59,5.52,1.3,7.63,2.09
	c1.95,0.82,3.71,1.66,5.43,2.4l0.43,0.15c2.07,0.6,4.16,0.91,6.34,1.13l0.39,0.02c1.63-0.02,3.22-0.3,5.18-0.7l0.07-0.01
	c1.89-0.42,4.42-0.99,7.62-1.7c2.02-0.4,4.19-0.8,6.42-1.15c2.2-0.33,4.47-0.6,6.7-0.76c2.1-0.15,4.14-0.21,6.11-0.21
	c0.13,0,0.25,0,0.35,0c1.98,0.11,3.9,0.32,5.73,0.6c3.37,0.8,6.3,1.71,8.91,2.66c1.37,0.53,2.68,1.08,3.94,1.65
	c-0.12,0.01-0.23,0.02-0.35,0.03c-1-0.05-1.98-0.07-2.95-0.07c-2.77,0-5.25,0.17-7.21,0.53l-0.07,0.02
	c-2.05,0.43-3.99,0.94-5.83,1.52L328,47.92c-1.84,0.64-3.6,1.35-5.29,2.17c-3.3,1.6-6.21,3.42-8.82,5.4l-0.13,0.1
	c-2.33,1.95-4.39,4.01-6.26,6.17l-0.1,0.12c-1.67,2.12-3.21,4.29-4.81,6.42c-1.36,1.73-2.41,3.66-3.19,5.69
	c-1.06,2.58-1.66,5.32-1.89,8.11c-0.07,0.81-0.1,1.63-0.1,2.45c0,1.32,0.08,2.64,0.24,3.95c0.37,3.15,1.13,6.25,2.14,9.16
	c1.02,2.92,2.34,5.66,3.92,8.06c1.01,1.52,2.03,3,3.08,4.44c1.46,2.02,3.04,3.99,4.79,5.82c-2.49-0.68-4.98-1.41-7.57-2.21
	c-1.79-0.56-3.85-1.15-6.21-1.76c-2.24-0.58-4.74-1.18-7.49-1.79c-2.37-1.12-3.67-2.13-4.82-3.32c-0.92-1.1-1.85-2.2-2.74-3.27
	c-0.8-0.99-1.52-2.03-2.12-3.1c-0.51-1.23-0.93-2.52-1.29-3.86c-0.53-2.09-0.9-4.3-1.09-6.56c-0.16-1.9-0.24-3.82-0.24-5.76
	c0-0.41,0-0.83,0.01-1.25c0.04-2.37,0.16-4.69,0.4-6.95c0.2-2.24,0.54-4.37,1.03-6.35c0.48-1.96,1.13-3.76,1.95-5.42
	c0.8-1.57,1.79-3.03,3-4.37c1.35-1.5,1.23-3.81-0.26-5.16c-1.5-1.35-3.81-1.23-5.16,0.27l0,0c-1.64,1.82-3.01,3.83-4.1,5.99
	c-1.1,2.21-1.92,4.53-2.51,6.95c-0.59,2.4-0.98,4.88-1.21,7.39c-0.25,2.45-0.39,4.98-0.43,7.53c-0.01,0.45-0.01,0.91-0.01,1.37
	c0,2.11,0.08,4.25,0.26,6.38c0.23,2.64,0.66,5.24,1.29,7.77c0.46,1.73,1.01,3.4,1.69,5.01l0.16,0.33c0.01,0.02,0.02,0.03,0.03,0.04
	c-0.23,0.05-0.46,0.1-0.68,0.15l-0.16,0.05c-1.56,0.48-3.08,0.7-4.63,0.7c-0.54,0-1.08-0.03-1.64-0.08
	c-1.83-0.68-3.85-1.76-6.03-3.17c-0.05-0.09-0.09-0.19-0.15-0.27c-1.21-1.82-2.51-3.85-3.54-5.91c-0.99-2.05-1.72-4.14-1.91-5.92
	c-0.09-1.2-0.14-2.41-0.14-3.63c0-2.19,0.16-4.37,0.49-6.49c0.48-3.23,1.38-6.25,2.65-8.96c0.85-1.83,0.07-4-1.76-4.86
	c-1.83-0.85-4-0.06-4.85,1.76h0c-1.59,3.39-2.67,7.09-3.25,10.96c-0.39,2.5-0.57,5.06-0.57,7.59c0,1.41,0.05,2.82,0.16,4.21
	l0.01,0.09c0.09,0.87,0.25,1.72,0.45,2.55c-3-1.32-6.11-2.26-9.31-2.62c-1.19-0.13-2.37-0.19-3.52-0.19c-2.04,0-4.03,0.18-5.95,0.49
	c-2.82,0.45-5.52,0.98-8.09,1.54c-2.42,0.42-4.7,0.75-6.82,0.84c-0.33,0.02-0.68,0.02-1.02,0.02c-2.27,0-4.72-0.34-7.29-0.77
	c-1.57-0.3-3.19-0.6-4.86-0.87c-0.75-0.36-1.48-0.78-2.15-1.25c-0.69-0.49-1.33-1.04-1.89-1.61c-1.03-1.26-1.78-2.41-2.29-3.35
	c-0.8-1.63-1.13-2.95-1.4-4.29c-0.18-1.05-0.43-2.71-0.54-4.45c0.06-0.96,0.19-1.94,0.37-2.74c0.19-0.84,0.47-1.5,0.59-1.65
	c1.08-1.71,0.56-3.96-1.14-5.04c-1.71-1.08-3.96-0.56-5.04,1.14c-0.79,1.27-1.2,2.56-1.53,3.91c-0.31,1.4-0.48,2.79-0.56,4.15v0.4
	c0.12,2.28,0.44,4.3,0.65,5.51l0.02,0.11c0.32,1.6,0.84,3.78,2.05,6.22l0.06,0.12c0.42,0.77,0.93,1.59,1.51,2.45
	c-1.48,0.2-2.9,0.48-4.28,0.78l-0.16,0.04c-3.38,0.9-6.65,2.09-10.24,3.32c-2.13,0.72-4.22,1.47-6.29,2.18
	c-2.02,0.7-4.03,1.32-6.04,1.84c-2.06,0.52-4.14,1-6.26,1.39c-2.12,0.4-4.28,0.72-6.54,0.92c-2.45,0.23-4.96,0.46-7.49,0.73
	c-3.82-3.17-6.94-8.71-9.68-13.75c-2.25-4.02-4.15-10.99-4.11-16.53c-0.01-2.55,0.39-4.77,1.06-6.22c0.83-1.84,0.01-4-1.82-4.83
	c-1.84-0.83-4-0.01-4.83,1.82h0c-1.27,2.83-1.7,5.98-1.71,9.23c0.03,7.06,2.09,14.65,5.02,20.05c1.86,3.34,3.96,7.27,6.73,10.86
	c-0.06,0.07-0.14,0.13-0.2,0.21c-0.09,0.13-0.27,0.32-0.49,0.54c-3.41,0.62-6.77,1.42-9.99,2.51l-11.97,3.44
	c-3.38,0.86-5.9,2.38-8.05,3.58c-1.03,0.58-1.98,1.08-2.92,1.5c-2.38,1.17-3.99,1.25-6.08,1.34c-0.22,0.01-0.44,0.03-0.65,0.03
	c-1.17,0-2.32-0.1-3.47-0.3C87.72,115.02,85.5,114.31,83.35,113.37z M133.6,131.39c0.96,0,1.9-0.04,2.81-0.12
	c3.09-0.24,6.05-0.92,8.79-1.94c1.38-0.52,2.7-1.13,3.98-1.82c1.24-0.67,2.47-1.42,3.66-2.23c2.3-1.58,3.94-3.45,5.33-5.24
	c1.43-1.85,2.55-3.6,3.79-5.11l0.13-0.17c1.33-1.9,2.57-4.49,3.91-6.86c0.6-0.99,1.24-1.79,1.7-2.22c0.23-0.22,0.42-0.34,0.49-0.38
	c0,0,0,0,0,0c0.67-0.08,1.26-0.34,1.76-0.72c0.62-0.2,1.25-0.39,1.86-0.61c1.14-0.39,2.27-0.79,3.38-1.18
	c-2.59,5.62-5.47,11.13-9.04,15.9c-5.04,6.72-11.21,12.19-19.55,15.37c-2.33,0.89-5.03,1.42-7.5,1.42c-2.26,0-4.3-0.44-5.8-1.25
	c-1.32-0.72-2.26-1.62-2.93-3.02C131.48,131.32,132.55,131.39,133.6,131.39z M129.33,123.68c0.05-1.57,0.22-3.16,0.5-4.61
	c0.16-0.56,0.51-1.35,1.05-2.3c0.54-0.95,1.28-2.06,2.17-3.21c1.01-1.11,2.07-2.18,3.06-3.14c0.1-0.08,0.19-0.16,0.28-0.24
	c4.83-0.77,9.9-1.25,14.88-1.7c2.29-0.21,4.47-0.53,6.6-0.91c-0.67,1.24-1.26,2.29-1.65,2.85c-1.51,1.88-2.66,3.66-3.82,5.15
	c-1.19,1.54-2.29,2.73-3.66,3.67c-1,0.67-2.03,1.3-3.05,1.85c-0.99,0.54-2,1-3.05,1.4c-2.11,0.79-4.38,1.31-6.83,1.5
	c-0.75,0.07-1.48,0.1-2.21,0.1C132.21,124.08,130.79,123.96,129.33,123.68z M61.89,201.64c1.79-11.07,8.16-20.73,16.28-29.48
	c1.66-1.84,3.83-3.91,5.82-6.32c0.53-0.04,1.05-0.19,1.54-0.48c2.62-1.54,4.9-3.32,6.97-4.71c2.07-1.34,4.28-2.42,6.42-3.11
	c1.78-0.58,3.49-0.9,5.04-0.94c0.01,0.01,0.02,0.03,0.03,0.04c1.56,1.87,1.99,3.42,2.02,5.36c0.05,3.17-1.73,7.32-3.41,11.64
	c-1.39,3.65-2.99,5.95-5.08,7.96c-1.58,1.51-3.52,2.87-5.9,4.3v-4.87c0-2.02-1.63-3.65-3.65-3.65c-2.02,0-3.65,1.63-3.65,3.65h0
	c0,1.72,0,3.43,0,5.15c0,1.36,0.76,2.54,1.86,3.16c-2.63,2.03-4.72,4.35-6.73,6.41c-2.71,2.82-5.21,5.15-8.31,6.46
	c-1.13,0.5-2.64,0.73-4.59,1.17v0c-1.52,0.32-3.22,0.6-5.01,1.21C61.62,203.57,61.73,202.58,61.89,201.64z M61.17,215.11
	c0.04-0.79,0.06-1.58,0.08-2.36c0.32-0.15,0.58-0.3,0.74-0.42l0.09-0.06c0.39-0.28,0.53-0.39,0.58-0.42c0.01,0,0.03-0.01,0.09-0.02
	l0.8-0.21c1.05-0.41,2.63-0.71,4.49-1.09l0.09-0.02c1.47-0.36,3.52-0.59,5.87-1.58c4.66-1.99,7.89-5.21,10.7-8.11
	c2.81-2.93,5.26-5.55,8.07-7.14c3.67-2.09,6.93-4.09,9.79-6.81c2.86-2.72,5.18-6.16,6.87-10.66c1.46-3.99,3.83-8.72,3.88-14.22
	c0-0.32-0.01-0.65-0.03-0.98c0.12,0.17,0.25,0.32,0.36,0.51c1.14,1.82,1.73,3.64,1.94,5.64c0.05,0.53,0.08,1.07,0.08,1.62
	c0,1.54-0.21,3.17-0.62,4.87c-0.56,2.39-1.47,4.81-2.63,7.16c-1.16,2.35-2.56,4.63-4.08,6.76c-1.7,2.37-3.45,3.94-5.54,5.53
	c-2.07,1.58-4.5,3.13-7.21,5.29c-2.32,1.84-4.14,3.78-5.83,5.48c-1.7,1.72-3.26,3.18-5.05,4.33c-2.12,1.36-4.37,2.42-6.72,3.36
	c-2.25,0.89-4.56,1.61-6.87,2.36c-1.95,0.62-4.09,1.47-6.13,2.04c-1.46,0.41-2.86,0.67-3.91,0.69
	C61.11,216.14,61.15,215.62,61.17,215.11z M44.62,284.41c-0.21-0.47-0.4-0.97-0.59-1.5c0-0.19-0.01-0.39-0.01-0.57
	c0-1.04,0.06-2,0.2-2.88c0.2-1.34,0.5-2.57,0.9-3.71c0.8-2.27,1.96-4.19,3.63-6.09c0.85-0.96,1.84-1.92,2.99-2.92
	c1.16-1.01,2.45-2.04,3.88-3.1c1.2-0.88,2.64-1.68,4.17-2.32c1.5-0.62,3.12-1.08,4.7-1.33c0.83-0.12,1.69-0.19,2.52-0.19
	c0.53,0,1.03,0.03,1.52,0.08c-0.18,8.15-1.59,14.39-6.78,20.13c-2.75,3.02-5.46,5.29-9.01,7.13c-1.56,0.82-3.52,1.59-5.48,3.01
	C46.38,288.24,45.47,286.33,44.62,284.41z M75.65,264.03c0.52,0.91,0.93,2.03,1.14,3.47c0.23,1.57,0.33,3.06,0.33,4.47
	c0,0.15,0,0.33,0,0.53c-0.03,1.52-0.19,2.98-0.46,4.36c-0.27,1.37-0.65,2.66-1.14,3.92c-0.49,1.26-1.09,2.49-1.81,3.72
	c-0.71,1.21-1.52,2.43-2.45,3.66c-0.91,1.2-1.93,2.42-3.05,3.66c-1.15,1.28-2.46,2.56-3.84,3.65c-1.4,1.03-2.92,1.96-4.54,2.75
	c-1.72,0.85-3.54,1.63-5.41,2.33c-0.96,0.36-1.92,0.71-2.87,1.04c-0.3-1.4-0.71-2.76-1.19-4.09c0.19-0.56,0.5-0.85,1.17-1.41
	c0.93-0.71,2.6-1.44,4.54-2.43c4.44-2.28,7.94-5.26,11.07-8.71C72.88,278.67,75.03,271.5,75.65,264.03z M85.45,351.86
	c-3.29,2.39-6.53,4.69-9.94,6.55c-2.21,1.22-4.51,2.6-6.67,3.5c-1.46,0.57-2.81,0.88-3.96,0.88c-0.54,0-1.04-0.06-1.52-0.19
	c-0.14-0.02-1.04-0.45-1.96-1.14c-0.94-0.68-1.97-1.6-2.83-2.51c-0.79-0.83-1.45-1.67-1.84-2.33c-0.07-0.12-0.13-0.23-0.18-0.33
	c0.24-0.12,0.51-0.23,0.74-0.35c2.52-1.37,4.81-2.99,6.94-4.74c2.13-1.75,4.09-3.62,5.94-5.49c1.85-1.86,3.61-3.7,5.36-5.43
	c1.75-1.74,3.48-3.35,5.22-4.75c1.94-1.55,3.24-1.88,4.06-1.88c0.75,0.01,1.42,0.24,2.33,0.94c2.44,1.78,4.87,7.04,6.45,11.36
	C90.85,347.91,88.15,349.9,85.45,351.86z M150.74,303.29c-1.87,1.51-3.88,3.14-6.02,4.86c-2.22,1.79-4.45,3.6-6.68,5.4
	c-3.35,2.71-6.7,5.42-10.05,8.1c-2.19,1.75-4.4,3.47-6.61,5.17c-0.83-2.13-1.62-4.06-2.17-5.6c-0.9-2.49-1.58-4.78-1.58-7.02
	c0-0.51,0.03-1.01,0.1-1.52l0.02-0.16c0.19-1.91,0.84-3.48,1.9-5.21c1.02-1.73,2.43-3.48,3.98-5.45c1.25-1.59,2.74-3.15,4.38-4.4
	c1.6-1.11,3.51-1.97,5.54-2.42c1.54-0.35,3.08-0.54,4.56-0.54c0.68,0,1.34,0.04,1.98,0.12l0.07,0.01c2.1,0.22,4.08,0.85,5.98,2.06
	l0.08,0.05c2.2,1.33,4.36,2.7,6.51,4.1c0.18,0.12,0.37,0.25,0.56,0.37C152.45,301.9,151.61,302.59,150.74,303.29z M196.93,298.88
	c-1.32,2.77-3.27,4.78-7.24,6.16c-3.09,1.03-5.87,1.46-8.47,1.46c-0.75,0-1.49-0.04-2.21-0.11c-3.26-0.46-6.29-1.56-9.34-3.16
	c-2.1-1.21-4.2-2.59-6.33-4.05c-2.21-1.48-4.38-2.98-6.61-4.45c-2.2-1.43-4.41-2.84-6.7-4.22c-2.89-1.84-6.02-2.83-9.1-3.15
	c-0.96-0.12-1.9-0.17-2.83-0.17c-2.1,0-4.17,0.26-6.16,0.71c-3.02,0.67-5.82,1.94-8.23,3.64l-0.1,0.07
	c-2.29,1.74-4.18,3.75-5.73,5.72c-1.48,1.9-3.1,3.85-4.49,6.18c-1.38,2.23-2.59,4.97-2.91,8.22c-0.11,0.84-0.16,1.66-0.16,2.45
	c0.01,3.69,1.06,6.84,2.01,9.5c0.69,1.91,1.57,4.05,2.45,6.32c0.88,2.28,1.76,4.66,2.39,6.97c0.56,1.99,0.88,3.91,0.88,5.63
	c0,0.25-0.01,0.5-0.02,0.73c-0.11,1.92-0.59,3.55-1.63,5.08c-2.13,3.04-4.36,3.95-6.6,3.99c-3.29,0.04-7.09-2.53-8.64-6.98
	c-1.1-3.13-2.65-7.5-5.03-11.35c-1.2-1.93-2.6-3.76-4.44-5.22c-1.82-1.46-4.2-2.54-6.87-2.53c-2.95,0-5.87,1.26-8.64,3.5
	c-2.04,1.64-3.94,3.43-5.78,5.26c-1.84,1.82-3.62,3.68-5.4,5.47c-1.77,1.78-3.55,3.48-5.4,4.99c-1.85,1.52-3.77,2.87-5.79,3.96
	c-1.51,0.82-3.95,1.66-6.4,2.08c-1.29,0.2-2.63,0.32-3.89,0.32c-1.08,0-2.1-0.08-3.02-0.26c-2.04-0.4-3.54-1.12-4.7-2.37l-0.13-0.13
	c-1.25-1.23-2.45-3.24-3.2-6.96c-0.13-0.84-0.19-1.67-0.19-2.5c0-1.67,0.25-3.35,0.76-5.08c0.87-2.6,2.23-5.02,3.94-7.23
	c1.82-2.1,3.97-4.03,6.13-5.87c2.34-1.81,4.55-3.67,6.28-6.01l0.19-0.28c1.2-1.98,1.94-4.05,2.28-6.12c1.75-0.53,3.46-1.12,5.1-1.74
	c2.07-0.78,4.11-1.64,6.07-2.61c2.02-0.99,3.95-2.16,5.74-3.49l0.08-0.06c1.81-1.42,3.4-2.99,4.77-4.52
	c1.22-1.36,2.38-2.73,3.45-4.14c1.07-1.43,2.06-2.88,2.94-4.39c0.88-1.52,1.65-3.08,2.29-4.72c0.64-1.65,1.15-3.37,1.51-5.17
	c0.36-1.81,0.56-3.7,0.59-5.67c0-0.21,0-0.41,0-0.63c0-1.77-0.13-3.61-0.41-5.52c-0.4-2.7-1.31-5.1-2.66-7.08
	c-1.36-1.98-3.12-3.52-5.08-4.61c-1.96-1.09-4.09-1.75-6.26-2.06c-1.02-0.14-2.02-0.2-3.02-0.2c-1.21,0-2.42,0.09-3.62,0.27
	c-2.23,0.35-4.38,0.97-6.41,1.81c-2.05,0.86-3.95,1.93-5.66,3.17c-1.59,1.17-3.04,2.32-4.38,3.49c-1.32,1.15-2.54,2.32-3.65,3.57
	c-0.59,0.66-1.14,1.35-1.65,2.05c0-0.28-0.01-0.57-0.01-0.85c0-3.83,0.29-7.58,0.77-10.75c0.56-3.88,2.9-7.95,5.94-12.13
	c3.01-4.19,6.62-8.41,9.26-13.06c1.13-2,1.88-4.06,2.4-6.13c0.31,0.02,0.62,0.04,0.93,0.04c2.14-0.01,4.16-0.45,6.04-0.97
	c0.79-0.22,1.56-0.47,2.29-0.71c-0.04,2.37-0.23,3.94-1.01,5.45c-0.92,1.79-0.22,4,1.57,4.92c0.54,0.28,1.11,0.41,1.67,0.41
	c1.32,0,2.6-0.72,3.25-1.98c1.83-3.56,1.82-6.98,1.83-10.05v-0.17c0-0.34-0.06-0.67-0.15-0.98c1.38-0.46,2.8-0.95,4.27-1.53
	c2.62-1.05,5.32-2.31,7.96-4c2.55-1.63,4.51-3.54,6.29-5.33c1.79-1.8,3.39-3.49,5.19-4.91c2.35-1.89,4.67-3.37,7.07-5.19
	c2.39-1.8,4.85-3.98,7.07-7.1c1.72-2.41,3.33-5.01,4.69-7.78c1.36-2.77,2.48-5.69,3.19-8.71c0.52-2.15,0.82-4.35,0.82-6.56
	c0-0.79-0.04-1.58-0.12-2.36c-0.31-3-1.26-6-3.01-8.76c-1.69-2.74-3.98-4.82-6.54-6.15c-2.53-1.38-5.28-2.05-8.01-2.21
	c-0.33-0.02-0.64-0.02-0.95-0.02c-2.6,0-5.18,0.5-7.69,1.32c-2.55,0.83-5.04,2.04-7.42,3.51c0.01-0.17,0.02-0.34,0.02-0.51
	c-0.12-5.24-2.24-8.84-2.42-12.02c-0.05-0.56-0.08-1.12-0.08-1.71c-0.02-4.22,1.43-9.05,4-12.54c1.44-1.93,3.11-3.43,5.07-4.42
	c0.75-0.07,1.5-0.17,2.26-0.3c1.36-0.25,2.6-0.61,3.73-1.04c0.63-0.09,1.19-0.34,1.67-0.71c1.15-0.53,2.19-1.1,3.15-1.64
	c2.28-1.29,4.13-2.34,6.36-2.89l0.13-0.04l11.52-3.31c-0.04,0.07-0.09,0.14-0.12,0.21c-0.72,1.28-1.37,2.6-1.77,4.1l-0.05,0.2
	c-0.48,2.33-0.7,4.77-0.7,7.16c0,0.24,0,0.49,0.01,0.74c0.05,2.62,0.37,5.27,1.26,7.72c1.26,3.46,3.74,6.05,6.61,7.55
	c2.87,1.52,6.07,2.1,9.24,2.1c3.48,0,6.96-0.71,10.1-1.9c9.87-3.76,17.2-10.32,22.8-17.83c5.5-7.38,9.26-15.75,12.61-23.49
	c1.09-0.35,2.15-0.67,3.18-0.95c2.43-0.53,4.66-0.89,6.91-0.89c0.52,0,1.05,0.02,1.59,0.06c2.91,0.23,5.86,0.79,8.93,1.37l0.07,0.01
	c2.7,0.45,5.56,0.87,8.54,0.88c0.45,0,0.9-0.01,1.36-0.03c2.64-0.12,5.22-0.51,7.79-0.95l0.14-0.03c2.54-0.54,5.12-1.06,7.79-1.48
	c1.6-0.25,3.21-0.4,4.81-0.4c0.91,0,1.82,0.05,2.73,0.15c2.35,0.26,4.77,0.97,7.27,2.07c3.23,2.03,6.36,4.49,9.37,7l0.25,0.19
	c3.24,2.26,6.39,4.05,9.64,5.18l0.76,0.18c0.96,0.12,1.93,0.18,2.91,0.18c2.24,0,4.48-0.33,6.68-0.99c0.71-0.18,1.38-0.26,1.99-0.26
	c0.86,0,1.59,0.16,2.27,0.48c0.15,0.17,0.31,0.33,0.47,0.5c0.01,0.02,0.03,0.03,0.04,0.05c0.01,0.02,0.03,0.03,0.05,0.04
	c1.78,1.85,4.13,3.64,7.46,5.12l0.72,0.24c2.83,0.62,5.38,1.23,7.64,1.82c2.24,0.58,4.19,1.14,5.87,1.66
	c3.29,1.02,6.51,1.99,9.81,2.83c1.02,0.27,2.05,0.52,3.09,0.77c-0.11,0.36-0.18,0.74-0.18,1.13c0.01,0.36,0.01,0.71,0.01,1.04
	c0,3.3-0.39,6.37-1.12,9.29c-0.97,2.9-2.48,5.62-4.46,8.17c-1.89,1.91-4.06,3.47-6.52,4.73c-2.78,1.25-5.77,2.35-8.86,3.44
	l-0.24,0.1c-3.26,1.42-6.45,3.21-9.35,5.62l-0.43,0.42c-2.49,2.88-4.63,6.11-6.57,9.45c-1.74,3.08-3.43,5.96-5.17,8.58
	c-1.74,2.27-3.64,4.23-5.69,5.9c-2.21,1.4-4.57,2.57-7.07,3.57c-2.72,0.87-5.55,1.62-8.45,2.3c-2.16,0.48-5.64,0.78-9.01,1.47
	l-0.12,0.03c-3.32,0.86-6.96,2.08-9.12,5.76c-1.12,2.12-1.32,4.22-1.32,6.11c0.02,3.05,0.55,5.9,0.53,7.97
	c0,0.29-0.01,0.57-0.02,0.82c-0.34,5.45-1.17,9.53-2.89,12.49c-1.73,2.96-4.37,5.28-9.47,7.38l-0.08,0.03
	c-4.08,1.76-8.23,2.63-12.77,2.84c-0.56,0.03-1.13,0.04-1.75,0.04c-1.01,0-2.1-0.03-3.25-0.03c-1.27,0-2.63,0.04-4.04,0.22
	c-3.35,0.37-7.48,2.01-9.98,6.11c-1.57,2.36-2.22,5-2.21,7.45c0,2.51,0.61,4.84,1.39,6.98c1.56,4.22,3.86,7.95,4.93,10.7
	c1.03,2.6,2.43,6.25,3.72,10.4c0.68,2.13,1.31,4.34,1.84,6.57c0.53,2.23,0.94,4.47,1.16,6.63c0.1,1.07,0.16,2.15,0.16,3.18
	C198.35,294.2,197.88,296.82,196.93,298.88z M338.35,131.49c-1.03,3.55-2.07,6.53-4.19,9.02c-5.48,6.54-13.01,11.44-19.55,18.82
	c-8.47,9.64-18.63,17.94-28.21,27.18c-12.58,12.14-25.19,24.71-37.84,36.78c-13.31,12.71-27.1,25.62-42.02,36.11
	c-2.36,1.66-4.83,3.22-7.32,4.82c-0.34-0.9-0.66-1.72-0.95-2.46c-1.47-3.66-3.68-7.23-4.86-10.52c-0.61-1.65-0.95-3.19-0.94-4.48
	c0.01-1.28,0.27-2.31,1-3.43l0.06-0.1c1.31-1.97,2.44-2.4,4.78-2.79c0.91-0.12,1.95-0.16,3.07-0.16c1.03,0,2.12,0.03,3.25,0.03
	c0.68,0,1.39-0.01,2.12-0.05c5.23-0.24,10.34-1.28,15.3-3.43v0c6.04-2.44,10.37-5.9,12.98-10.47c2.61-4.57,3.46-9.79,3.84-15.65
	c0.03-0.43,0.04-0.87,0.04-1.29c-0.02-3.03-0.55-5.87-0.53-7.97c-0.01-1.31,0.19-2.2,0.44-2.63c0.11-0.43,1.68-1.51,4.32-2.12
	c2.77-0.59,6.15-0.86,9.12-1.49c3.14-0.74,6.2-1.54,9.2-2.51l0.23-0.08c2.98-1.18,5.86-2.61,8.6-4.37l0.33-0.24
	c2.6-2.1,4.98-4.56,7.12-7.36l0.14-0.19c1.93-2.89,3.71-5.96,5.49-9.09c1.72-2.96,3.57-5.74,5.56-8.08c2.16-1.75,4.6-3.14,7.26-4.3
	c3.13-1.1,6.3-2.26,9.39-3.66l0.14-0.07c3.21-1.62,6.14-3.73,8.66-6.33l0.25-0.29c2.53-3.22,4.53-6.79,5.81-10.68l0.07-0.24
	c0.9-3.54,1.37-7.26,1.37-11.2c0-0.27,0-0.54-0.01-0.8c3.14,0.5,6.46,0.87,9.83,1c0.94,0.04,1.89,0.06,2.85,0.06
	c1.68,0,3.36-0.07,5.04-0.21c0.09,0,0.18,0,0.27-0.01C339.27,128.27,338.81,129.94,338.35,131.49z M367.67,84.91v0.11
	c0,3.11-0.15,6.04-0.49,8.73c-0.29,2.17-0.75,4.21-1.36,6.13c-0.12,0.24-0.2,0.5-0.25,0.77c-0.04,0.12-0.07,0.24-0.12,0.35
	c-0.47,1.3-1.04,2.54-1.7,3.75c-0.19,0.24-0.39,0.49-0.61,0.75c-0.86,0.97-1.89,2-2.99,2.97c-1.08,0.93-2.21,1.82-3.27,2.6
	c-1.01,0.76-2.05,1.46-3.05,2.12c-1.06,0.7-2.04,1.37-2.91,2.03l-0.1,0.08c-0.91,0.75-1.83,1.37-2.78,1.88
	c-0.87,0.47-1.79,0.84-2.75,1.14c-1.34,0.32-2.72,0.57-4.13,0.75c-0.74,0.1-1.5,0.15-2.25,0.21c-0.18,0-0.36,0.01-0.55,0.01
	c-2.48,0-5.09-0.29-7.71-0.76c-8.4-1.54-13.05-6.02-17.95-12.67c-0.96-1.32-1.92-2.72-2.89-4.17c-1.19-1.81-2.27-4.03-3.12-6.45
	c-0.85-2.43-1.48-5.04-1.78-7.59c-0.12-1.05-0.19-2.08-0.19-3.09c0-0.63,0.03-1.25,0.08-1.86c0.17-2.16,0.64-4.2,1.39-5.99
	l0.04-0.09c0.56-1.46,1.29-2.75,2.15-3.85l0.07-0.09c1.63-2.2,3.13-4.29,4.64-6.21c1.6-1.85,3.36-3.6,5.33-5.26
	c2.2-1.66,4.65-3.19,7.48-4.56c1.38-0.67,2.86-1.27,4.44-1.83c1.58-0.5,3.26-0.95,5.08-1.33c1.2-0.23,3.41-0.4,5.78-0.39
	c0.9,0,1.84,0.02,2.78,0.07l0.39,0c3.64-0.22,6.97-0.67,8.49-0.65c0,0,0.02,0,0.05,0c0.36,0.03,0.54,0.09,1.1,0.44
	c0.5,0.32,1.18,0.92,2.16,1.62c0.99,1,1.95,2.01,2.85,3.19c1.07,1.52,2.05,3.19,2.81,5.04c0.36,0.87,1.02,1.52,1.81,1.9
	c0.56,1.19,1.07,2.4,1.51,3.64c0.93,2.58,1.59,5.26,2,8.02c0.35,2.34,0.54,4.7,0.54,7.06C367.7,83.93,367.69,84.42,367.67,84.91z
	 M356.26,74.66c-0.68-1.9-1.67-3.65-2.98-5.1c-1.15-1.24-2.53-2.2-4.04-2.84l-0.13-0.05c-1.26-0.49-2.59-0.79-3.95-0.98
	c-1.24-0.15-2.47-0.22-3.72-0.22c-0.15,0-0.32,0-0.51,0c-1.36,0.01-2.73,0.11-4,0.26l-0.1,0.01c-1.9,0.26-3.74,0.76-5.47,1.53
	l-0.14,0.07c-1.68,0.84-3.25,1.93-4.72,3.18c-1.23,1.08-2.43,2.23-3.54,3.51c-1.15,1.38-2.08,2.8-2.84,4.3
	c-0.75,1.52-1.29,3.07-1.64,4.64l-0.02,0.1c-0.24,1.29-0.36,2.59-0.36,3.9c0,0.02,0,0.08,0,0.18c0.03,1.3,0.16,2.65,0.47,4.02
	l0.06,0.24c0.41,1.35,0.98,2.64,1.68,3.84l0.04,0.07c0.9,1.46,1.85,2.77,2.71,3.97c0.76,1.17,1.48,2.38,2.19,3.59
	c0.41,0.78,0.8,1.59,1.24,2.45c0.71,1.38,1.67,2.93,3.23,4.2l0.19,0.14c1.54,1.1,3.52,1.89,5.77,2.14c0.74,0.07,1.43,0.1,2.13,0.1
	c0.64,0,1.28-0.03,1.91-0.07c1.05-0.08,2.05-0.21,3.04-0.35l0.15-0.02c1.73-0.32,3.31-0.9,4.71-1.64l0.15-0.08
	c1.11-0.66,2.08-1.3,2.9-1.78c1.73-1.04,2.29-3.28,1.25-5.01c-1.04-1.73-3.28-2.29-5.01-1.25c-0.96,0.57-1.88,1.17-2.79,1.72
	c-0.74,0.39-1.56,0.69-2.47,0.86c-0.88,0.13-1.71,0.23-2.45,0.28c-0.47,0.03-0.95,0.05-1.38,0.05c-0.48,0-0.94-0.02-1.35-0.06
	c-1.02-0.12-1.67-0.4-2.24-0.78c-0.38-0.33-0.78-0.88-1.24-1.78c-0.39-0.74-0.8-1.61-1.3-2.57l-0.08-0.15
	c-0.75-1.27-1.54-2.61-2.42-3.98l-0.1-0.15c-0.89-1.23-1.75-2.43-2.49-3.64c-0.39-0.67-0.7-1.37-0.92-2.07
	c-0.17-0.78-0.25-1.6-0.27-2.46l0-0.04c0-0.84,0.08-1.66,0.21-2.43c0.22-0.99,0.56-1.96,1.03-2.92c0.5-0.98,1.12-1.94,1.87-2.83
	c0.79-0.91,1.75-1.85,2.74-2.71c1.05-0.89,2.13-1.63,3.15-2.14c1.01-0.44,2.13-0.75,3.4-0.93c1.05-0.11,2.15-0.19,3.22-0.2
	c0.14,0,0.26,0,0.39,0c0.99,0,1.93,0.06,2.78,0.16c0.82,0.11,1.58,0.3,2.19,0.53c0.63,0.28,1.08,0.6,1.49,1.05
	c0.54,0.6,1.07,1.47,1.5,2.67c0.39,1.06,0.65,2.2,0.72,3.51c-0.02,1.13-0.14,2.22-0.4,3.32c-0.39,1.18-0.96,2.36-1.67,3.38
	c-0.84,1.09-1.69,1.9-2.46,2.4c-0.74,0.43-1.37,0.64-2.22,0.69c-1.28-0.18-1.96-0.48-2.21-0.65c-0.35-0.26-0.27-0.21-0.36-0.38
	c-0.09-0.21-0.21-0.81-0.22-1.85l-0.01-0.08c0-0.07,0-0.2,0-0.38c0-0.94,0.06-2.12,0.1-3.46c0.06-2.02-1.52-3.7-3.54-3.76
	c-2.01-0.07-3.7,1.52-3.76,3.53c-0.04,1.26-0.1,2.48-0.1,3.69c0,0.18,0,0.4,0.01,0.66c0.03,1.34,0.13,2.73,0.69,4.23
	c0.54,1.51,1.73,2.99,3.23,3.93c1.57,1,3.4,1.54,5.57,1.8l0.5,0.03c2.23-0.02,4.36-0.69,6.12-1.77l0.1-0.06
	c1.7-1.11,3.14-2.55,4.41-4.21l0.1-0.14c1.19-1.71,2.09-3.58,2.71-5.5l0.07-0.24c0.45-1.82,0.63-3.58,0.64-5.27l0-0.22
	C357.32,78.3,356.9,76.38,356.26,74.66z M160.83,243.87c4.41-6.06,8.53-14.89,9.58-23.46c0.14-1.23,0.22-2.46,0.22-3.68
	c0.1-7.32-3.08-14.93-10.86-19.16c-3.19-1.8-6.63-2.55-9.96-2.55c-5.01,0.01-9.78,1.61-14.13,3.67c-7.34,3.5-13.79,8.97-17.91,11.99
	l-0.11,0.08c-5.23,4.16-9.56,9.62-12.32,15.81c-1.27,2.86-2.19,5.89-2.69,9.02c-0.3,0.46-0.52,0.98-0.59,1.55h0
	c-0.08,0.63-0.12,1.25-0.12,1.85c-0.01,0.88,0.09,1.75,0.28,2.57c0.02,1.7,0.17,3.43,0.46,5.17c0.88,5.48,3.36,9.79,6.96,12.48
	c3.59,2.7,7.96,3.73,12.38,3.77h0.28c4.35,0,8.85-0.92,13.25-2.39c4.5-1.51,8.88-3.61,12.81-6.01
	C153.62,251.32,158.06,247.65,160.83,243.87z M109.71,240.8c-0.06-0.09-0.13-0.18-0.18-0.3c0.08-3.81,0.95-7.49,2.49-10.97
	c2.23-5.02,5.84-9.6,10.16-13.03c4.4-3.26,10.47-8.31,16.64-11.22c3.78-1.81,7.6-2.98,10.99-2.96c2.27,0.01,4.35,0.48,6.41,1.62
	c0.61,0.35,1.17,0.72,1.69,1.1c-0.36,6.59-2.87,12.53-6.74,17.8c-4.18,5.68-9.95,10.47-15.98,14.01
	c-6.21,3.62-10.33,5.63-16.66,5.66c-2.72,0.02-5.65-0.12-7.3-0.75C110.38,241.44,109.94,241.1,109.71,240.8z M133.23,253.68
	c-3.83,1.28-7.63,2.01-10.93,2.01h-0.25c-3.34-0.03-6.06-0.81-8.01-2.29c-1.26-0.97-2.33-2.27-3.13-4.18
	c0.13,0.03,0.26,0.06,0.39,0.09c2.56,0.48,5.09,0.49,7.22,0.5h0.1c8.09,0,14-2.97,20.26-6.67c6.74-3.96,13.25-9.31,18.16-15.97
	c2.62-3.55,4.78-7.5,6.23-11.79c0.03,0.44,0.06,0.89,0.06,1.35c0,0.92-0.06,1.87-0.17,2.83c-0.76,6.78-4.52,15.01-8.22,20.01
	c-1.83,2.56-5.72,5.94-10.41,8.8C141.06,250.49,137.12,252.37,133.23,253.68z M169.36,177.41l0.06,0.11
	c1.42,2.44,3.28,4.52,5.5,6.16c2.21,1.64,4.72,2.84,7.35,3.65l0.17,0.05c2.36,0.6,4.79,0.88,7.22,0.88c0.33,0,0.66-0.01,0.97-0.01
	l0.06,0c2.69-0.12,5.35-0.54,7.93-1.19c3.23-0.77,6.43-1.82,9.48-3.11c2.37-0.93,4.67-1.97,6.92-3.13c2.23-1.16,4.39-2.42,6.48-3.77
	l0.09-0.06c2.07-1.43,4.03-2.96,5.9-4.56c1.86-1.59,3.64-3.22,5.35-4.88c3.59-3.41,6.2-6.98,8.3-10.78
	c2.16-3.75,3.86-7.91,5.59-12.69l0.04-0.12c1.44-4.49,2.24-9.37,2.24-14.17c0-0.5-0.01-1-0.02-1.48l-0.01-0.19
	c-0.44-5.2-1.9-10.09-4.69-14.06l-0.07-0.09c-2.79-3.73-6.58-6.62-11.15-7.95c-2-0.58-4.12-0.88-6.32-0.88
	c-2.76,0-5.64,0.47-8.61,1.4c-3.18,1-6.3,2.01-9.34,3.17c-3.06,1.2-6,2.57-8.85,4.18c-2.85,1.6-5.71,3.48-8.54,5.66
	c-2.92,2.12-5.8,4.53-8.55,7.09c-2.81,2.61-5.41,5.43-7.69,8.46c-2.26,3.01-4.25,6.21-5.94,9.6l0,0c-1.23,2.44-2.14,4.83-2.8,7.29
	c-0.67,2.46-1.06,4.96-1.36,7.66c-0.11,1-0.16,1.97-0.16,2.92c0,2.43,0.36,4.67,0.94,6.75
	C166.67,172.24,167.96,174.81,169.36,177.41z M237.66,136.5c0.74-1.4,1.47-2.83,2.14-4.28c0.67-1.44,1.27-2.9,1.79-4.37
	c0.03,0.25,0.06,0.5,0.09,0.76c0.01,0.4,0.02,0.79,0.02,1.18c0,3.96-0.67,8.13-1.87,11.88c-1.65,4.58-3.21,8.32-5.05,11.51
	c-1.85,3.33-3.93,6.18-6.99,9.1c-1.65,1.59-3.32,3.13-5.04,4.6c-1.7,1.45-3.45,2.82-5.26,4.07c-1.88,1.22-3.82,2.35-5.82,3.38
	c-2,1.04-4.08,1.97-6.24,2.82l-0.1,0.04c-2.7,1.15-5.54,2.08-8.45,2.78c-2.19,0.55-4.37,0.89-6.49,0.99
	c-0.26,0.01-0.5,0.01-0.74,0.01c-1.85,0-3.63-0.21-5.31-0.63c-1.52-0.47-2.91-1.11-4.14-1.88c0.94,0.11,1.89,0.17,2.84,0.17h0.03
	c0.97,0,1.95-0.06,2.93-0.16l0.08-0.01c2.97-0.39,5.91-1.19,8.74-2.32c2.67-1.09,5.26-2.15,7.77-3.24
	c3.69-1.66,7.23-3.51,10.65-5.84c3.38-2.3,6.64-4.97,9.66-8.13c2.01-2.03,3.95-4.28,5.74-6.67c1.77-2.39,3.36-4.93,4.77-7.58
	c0.76-1.33,1.5-2.69,2.2-4.08C236.29,139.28,236.99,137.9,237.66,136.5z M172.3,160.42c0.27-2.47,0.62-4.57,1.15-6.54
	c0.54-1.99,1.26-3.88,2.28-5.91l-3.26-1.64l3.27,1.63c1.49-2.98,3.25-5.81,5.25-8.48c1.99-2.64,4.28-5.14,6.82-7.5
	c2.58-2.4,5.27-4.64,7.92-6.57l0.08-0.06c2.56-1.97,5.14-3.66,7.7-5.1c2.55-1.43,5.17-2.66,7.91-3.73c2.78-1.06,5.77-2.03,8.91-3.02
	c2.34-0.74,4.47-1.06,6.41-1.06c0.55,0,1.09,0.04,1.61,0.09c0.41,0.47,0.94,0.84,1.54,1.05c1.45,0.94,2.6,1.91,3.44,2.86
	c0.73,0.86,1.3,1.76,1.73,2.69c0.15,0.76,0.23,1.53,0.23,2.31c0,1.25-0.19,2.57-0.55,3.95c-0.44,1.23-0.96,2.49-1.55,3.76
	c-0.62,1.33-1.3,2.68-2.01,4.03l-0.06,0.13c-0.64,1.34-1.32,2.67-1.99,3.98c-0.66,1.31-1.34,2.56-2.05,3.79l-0.06,0.11
	c-1.25,2.37-2.66,4.63-4.21,6.71c-1.57,2.11-3.29,4.1-5.11,5.94c-2.67,2.79-5.51,5.13-8.53,7.18c-2.97,2.02-6.12,3.68-9.49,5.2
	c-2.37,1.02-4.92,2.06-7.56,3.15c-2.25,0.9-4.58,1.53-6.87,1.83c-0.74,0.08-1.45,0.12-2.14,0.12c-1.36,0-2.66-0.15-3.9-0.45
	c-0.77-0.14-3.23-1.22-4.75-2.37c-0.64-0.48-1.22-1.04-1.5-1.41c-0.01-0.01-0.02-0.02-0.03-0.03c0.08-0.83-0.13-1.64-0.57-2.33
	c-0.09-0.69-0.14-1.41-0.14-2.17C172.19,161.89,172.22,161.18,172.3,160.42z M106.03,126.56c-2-0.28-3.84,1.12-4.12,3.12
	c-0.32,2.3-0.44,4.52-0.48,6.77c-0.04,2.02,1.56,3.68,3.58,3.72c0.02,0,0.04,0,0.07,0c1.99,0,3.62-1.59,3.66-3.58
	c0.04-2.08,0.15-3.99,0.42-5.91C109.42,128.68,108.03,126.84,106.03,126.56z M136.88,173.75c0.96,0,1.91-0.37,2.63-1.12
	c1.4-1.45,1.36-3.76-0.09-5.16c-1.61-1.53-2.4-3.97-2.4-6.92c0-1.87,0.33-3.85,0.86-5.6c0.58-1.93-0.52-3.97-2.45-4.55
	c-1.93-0.58-3.97,0.52-4.55,2.45c-0.71,2.37-1.17,5-1.17,7.7c0,4.17,1.12,8.77,4.64,12.18
	C135.06,173.41,135.97,173.75,136.88,173.75z M150.75,187.63c0.42,0.15,0.84,0.23,1.26,0.23c1.49,0,2.88-0.91,3.43-2.39
	c0.7-1.89-0.27-3.99-2.16-4.69c-1.33-0.5-1.62-0.9-1.73-1.06c-0.11-0.16-0.23-0.45-0.24-1.3c-0.03-1.24,0.41-3.32,0.43-5.89
	c0-0.06,0-0.12,0-0.2c-0.02-2.02-1.67-3.64-3.68-3.62c-2.02,0.02-3.64,1.67-3.62,3.68v0.14c0.02,1.58-0.4,3.52-0.43,5.89
	c-0.01,1.57,0.25,3.51,1.43,5.3C146.6,185.52,148.49,186.81,150.75,187.63z M261.21,140.65c0.59,0.36,1.25,0.53,1.89,0.53
	c1.23,0,2.44-0.63,3.13-1.76c1.05-1.72,0.5-3.97-1.23-5.02c-0.51-0.32-0.89-0.78-1.25-1.9c-0.35-1.09-0.51-2.7-0.5-4.45
	c-0.01-2.51,0.3-5.21,0.31-7.63c0-2.02-1.64-3.65-3.65-3.65c-2.02,0-3.65,1.63-3.65,3.65c0.01,1.76-0.3,4.62-0.31,7.63
	c0.01,2.13,0.14,4.37,0.83,6.61C257.43,136.86,258.81,139.2,261.21,140.65z M278.37,140.46h0.05c1.99,0,3.63-1.6,3.65-3.6
	c0.03-2.53,0.43-4.66,1.17-6.54c0.74-1.88-0.18-4-2.05-4.74c-1.88-0.74-4,0.18-4.74,2.05l0,0c-1.12,2.84-1.64,5.9-1.68,9.13
	C274.74,138.78,276.35,140.44,278.37,140.46z M91.16,243.27c-0.04-0.09-0.13-0.36-0.19-0.78c-0.09-0.52-0.14-1.22-0.14-1.98
	c0-1.25,0.13-2.67,0.35-3.86c0.19-1.18,0.55-2.21,0.64-2.36c0.93-1.79,0.22-4-1.57-4.92c-1.79-0.93-3.99-0.22-4.92,1.57v0
	c-0.69,1.37-1.04,2.79-1.35,4.43c-0.29,1.63-0.46,3.4-0.46,5.15c0.1,2.46,0.08,4.72,1.83,7.18c0.72,0.92,1.79,1.39,2.87,1.39
	c0.79,0,1.59-0.26,2.26-0.78C92.04,247.08,92.34,244.85,91.16,243.27z M98.75,285.97c-1.81-0.89-4-0.16-4.89,1.65
	c-2.88,5.77-3.6,11.3-3.58,17.29c0,2.02,1.64,3.65,3.65,3.65c2.02,0,3.65-1.63,3.65-3.65c0.02-5.51,0.57-9.46,2.83-14.05
	C101.3,289.06,100.56,286.87,98.75,285.97z M63.15,320.38c-1.69-1.1-3.95-0.62-5.05,1.07c-2.28,3.54-3.72,7.07-5.46,9.6
	c-1.79,2.54-3.42,4.07-6.83,4.85c-1.97,0.42-3.23,2.36-2.81,4.33c0.36,1.72,1.88,2.9,3.57,2.9c0.25,0,0.51-0.03,0.76-0.08
	c5.46-1.1,9.09-4.45,11.36-7.88c2.31-3.44,3.74-6.99,5.55-9.73C65.32,323.74,64.84,321.48,63.15,320.38z M179.93,287.13
	c-7.66-1.94-12.66-5.13-18.02-11.01c-2.63-2.93-5.3-4.85-8.2-5.84c-2.9-1-5.7-1.07-8.68-1.08c-1.19,0-2.42,0.02-3.74,0.02
	c-2.02,0-3.65,1.64-3.65,3.65c0,2.02,1.63,3.65,3.65,3.65c1.38,0,2.62-0.02,3.74-0.02c2.85,0,4.75,0.14,6.29,0.68
	c1.53,0.54,3.03,1.48,5.18,3.84c5.99,6.69,12.75,11.03,21.68,13.21c0.29,0.07,0.59,0.11,0.88,0.11c1.64,0,3.13-1.11,3.54-2.77
	C183.08,289.59,181.88,287.61,179.93,287.13z M218.64,214.5c-1.74-1.01-3.98-0.42-4.99,1.32c-0.62,1.04-1.37,1.64-2.46,2.12
	c-1.08,0.47-2.51,0.71-4.06,0.71c-0.95,0-1.92-0.08-2.86-0.23c-5.01-0.78-9.54-1.57-15.25-1.57c-2.02,0-3.65,1.64-3.65,3.65
	c0,2.02,1.63,3.65,3.65,3.65c5.01,0,9.02,0.68,14.12,1.48c1.28,0.2,2.62,0.32,3.99,0.32c2.26,0,4.64-0.32,6.93-1.3
	c2.28-0.96,4.46-2.68,5.89-5.16C220.97,217.75,220.38,215.52,218.64,214.5z M248.1,165.89c0.29,1.79,1.84,3.07,3.6,3.07
	c0.19,0,0.39-0.02,0.59-0.05l0,0c3.06-0.63,4.6-2.5,6.03-4.17c1.38-1.74,2.42-3.58,3.09-5c0.86-1.82,0.08-4-1.75-4.86
	c-1.82-0.86-4-0.08-4.86,1.75c-0.43,0.92-1.3,2.44-2.21,3.57c-0.45,0.57-0.91,1.03-1.24,1.29c-0.16,0.13-0.29,0.21-0.35,0.23
	c0,0,0,0,0,0C249.09,162.08,247.78,163.93,248.1,165.89z M184.63,155.79c0.54,0.29,1.13,0.42,1.7,0.42c1.31,0,2.58-0.71,3.23-1.95
	c1.45-2.82,1.89-5.33,2.57-6.76c0.82-1.84,0-4-1.84-4.83c-1.84-0.83-4,0-4.83,1.84c-1.13,2.62-1.54,4.83-2.37,6.34
	C182.16,152.64,182.84,154.85,184.63,155.79z M204.02,141.63c-1.17,1.95-2.29,4.19-3.01,6.73c-0.55,1.94,0.57,3.96,2.51,4.51
	c0.33,0.1,0.67,0.14,1,0.14c1.59,0,3.05-1.05,3.51-2.66c0.48-1.69,1.3-3.38,2.25-4.97c1.04-1.73,0.47-3.97-1.25-5.01
	C207.3,139.33,205.06,139.9,204.02,141.63z M200.01,136.07c0.67,0.52,1.45,0.77,2.23,0.77c1.09,0,2.17-0.49,2.89-1.41
	c1.26-1.63,2.16-3.5,2.65-5.51c0.47-1.96-0.73-3.93-2.69-4.41c-1.96-0.47-3.93,0.73-4.41,2.69v0c-0.25,1.03-0.69,1.93-1.32,2.75
	C198.13,132.54,198.42,134.84,200.01,136.07z M123.06,234.75c0.86,0,1.73-0.3,2.43-0.92c1.33-1.18,2.33-2.7,2.9-4.34
	c0.66-1.91-0.35-3.99-2.26-4.64c-1.91-0.66-3.99,0.35-4.64,2.26h0c-0.19,0.53-0.43,0.89-0.85,1.27c-1.51,1.34-1.64,3.65-0.3,5.16
	C121.05,234.34,122.05,234.75,123.06,234.75z M135.12,221.14c0.72,0.95,1.81,1.45,2.91,1.45c0.77,0,1.54-0.24,2.2-0.74
	c1.63-1.16,2.59-3.31,2.52-5.12c0-0.69-0.1-1.35-0.25-1.96c-0.49-1.96-2.48-3.14-4.43-2.65c-1.91,0.48-3.08,2.38-2.68,4.29
	C134.17,217.68,134.02,219.69,135.12,221.14z M73.45,192.64c0.94,0,1.88-0.36,2.59-1.08c0.93-0.94,1.84-2.04,2.71-3.25
	c1.18-1.64,0.81-3.92-0.82-5.1c-1.64-1.18-3.92-0.81-5.1,0.82c-0.68,0.94-1.4,1.8-1.97,2.37c-1.42,1.43-1.42,3.74,0.01,5.16
	C71.59,192.29,72.52,192.64,73.45,192.64z M50.67,281.28c0.66,0.5,1.43,0.74,2.2,0.74c1.11,0,2.2-0.5,2.92-1.45
	c1.59-2.1,2.42-4.59,2.6-7.07c0.15-2.01-1.35-3.77-3.36-3.92c-2.01-0.16-3.77,1.35-3.92,3.36v0c-0.12,1.35-0.47,2.31-1.15,3.23
	C48.74,277.77,49.05,280.07,50.67,281.28z"/>
</svg>
