<?xml version="1.0" encoding="utf-8"?>
<!-- Generator: Adobe Illustrator 27.6.1, SVG Export Plug-In . SVG Version: 6.00 Build 0)  -->
<svg version="1.1" id="Layer_1" xmlns="http://www.w3.org/2000/svg" xmlns:xlink="http://www.w3.org/1999/xlink" x="0px" y="0px"
	 viewBox="0 0 288 288" style="enable-background:new 0 0 288 288;" xml:space="preserve">
<style type="text/css">
	.st0{fill-rule:evenodd;clip-rule:evenodd;}
	.st1{fill:#FFFFFF;}
</style>
<g>
	<circle class="st0" cx="144" cy="144" r="144"/>
	<g>
		<g>
			<path class="st1" d="M114.9,226.93c70.33,0,108.79-58.27,108.79-108.79c0-1.66-0.03-3.3-0.11-4.94
				c7.47-5.4,13.96-12.13,19.08-19.8c-6.85,3.04-14.22,5.09-21.96,6.02c7.89-4.73,13.96-12.22,16.81-21.15
				c-7.39,4.38-15.57,7.57-24.28,9.28c-6.98-7.43-16.91-12.08-27.91-12.08c-21.12,0-38.24,17.12-38.24,38.23
				c0,3,0.34,5.92,0.99,8.72c-31.78-1.6-59.96-16.81-78.81-39.95c-3.29,5.65-5.18,12.22-5.18,19.22c0,13.27,6.75,24.98,17.02,31.83
				c-6.27-0.19-12.16-1.92-17.32-4.78c-0.01,0.16-0.01,0.32-0.01,0.49c0,18.52,13.18,33.98,30.68,37.49
				c-3.21,0.87-6.59,1.34-10.08,1.34c-2.46,0-4.86-0.24-7.19-0.69c4.87,15.19,18.98,26.25,35.72,26.56
				c-13.09,10.26-29.58,16.37-47.49,16.37c-3.09,0-6.13-0.18-9.12-0.53C73.21,220.6,93.31,226.93,114.9,226.93"/>
		</g>
	</g>
</g>
</svg>
